Coordinates
version=1
nRows=21
nColumns=28
inDegrees=yes

Units are S.I. units (second, meters, Newtons, ...)
Angles are in degrees.

endheader
time	pelvis_tilt	pelvis_list	pelvis_rotation	pelvis_tx	pelvis_ty	pelvis_tz	hip_flexion_r	hip_adduction_r	hip_rotation_r	knee_angle_r	ankle_angle_r	subtalar_angle_r	mtp_angle_r	hip_flexion_l	hip_adduction_l	hip_rotation_l	knee_angle_l	socket_flexion	socket_adduction	socket_rotation	socket_tx	socket_ty	socket_tz	foot_flex	lumbar_extension	lumbar_bending	lumbar_rotation
      0.00000000	     -0.18639796	    -11.21002582	    -12.74757391	     -0.86053258	      0.98753514	      0.33711868	    -23.01385220	     10.77501202	     15.73061458	     -9.78028166	      7.54747658	    -13.57314559	     19.50184087	     27.13288907	    -15.88628092	      9.27673429	     -9.68773673	     -2.14717468	      0.00000000	      0.00000000	      0.00000000	     -0.00096937	      0.00000000	      2.48636696	    -13.52257424	      7.92568007	     20.38658728
      0.00416667	     -0.26054594	    -11.25861636	    -12.66634066	     -0.85535494	      0.98679290	      0.33653066	    -23.12741505	     10.78763279	     15.79062121	     -9.94362331	      7.51175967	    -13.55971454	     19.50558411	     27.00644171	    -15.82867151	      9.28593806	     -9.70575099	     -2.15741067	      0.00000000	      0.00000000	      0.00000000	     -0.00122384	      0.00000000	      2.40923464	    -13.37748383	      7.99633655	     20.39670562
      0.00833333	     -0.38497129	    -11.45289569	    -12.69977948	     -0.85005184	      0.98595750	      0.33595790	    -23.13886117	     10.91975669	     15.80746817	    -10.30053897	      7.25275690	    -13.52620734	     19.51013233	     26.81868857	    -15.97961228	      9.32976859	     -9.55008450	     -2.14609603	      0.00000000	      0.00000000	      0.00000000	     -0.00194782	      0.00000000	      1.90064793	    -13.26210344	      8.25182927	     20.42912986
      0.01250000	     -0.51448885	    -11.61664132	    -12.74322972	     -0.84453197	      0.98513940	      0.33541763	    -23.13820527	     11.02046615	     15.84937370	    -10.67950750	      6.99840405	    -13.50446425	     19.52957914	     26.61749972	    -16.10464026	      9.35681078	     -9.39300082	     -2.07930133	      0.00000000	      0.00000000	      0.00000000	     -0.00258288	      0.00000000	      1.65746434	    -13.11413822	      8.46667154	     20.45748906
      0.01666667	     -0.59814152	    -11.66932807	    -12.67739448	     -0.83870612	      0.98433887	      0.33479918	    -23.24057604	     11.03018197	     15.91240474	    -10.90520004	      6.92695370	    -13.49341845	     19.53546448	     26.44816825	    -16.05214165	      9.36427878	     -9.39052345	     -2.08715801	      0.00000000	      0.00000000	      0.00000000	     -0.00301851	      0.00000000	      1.57814269	    -12.93383999	      8.56125868	     20.46559928
      0.02083333	     -0.91666065	    -11.92099459	    -12.90096428	     -0.83290560	      0.98338146	      0.33446891	    -22.99921734	     11.21962928	     16.08896198	    -11.46696318	      6.39175370	    -13.49282845	     19.77503378	     26.17897533	    -16.40112396	      9.31812614	     -8.65256036	     -1.64076444	      0.00000000	      0.00000000	      0.00000000	     -0.00400072	      0.00000000	      1.18011551	    -12.62965172	      8.90271138	     20.64326926
      0.02500000	     -0.99207299	    -11.94976952	    -12.85263862	     -0.82677583	      0.98256975	      0.33376880	    -23.10751091	     11.17766528	     16.15230246	    -11.70159279	      6.32728011	    -13.49027608	     19.78112434	     25.97752623	    -16.32322147	      9.35948547	     -8.67831665	     -1.66984634	      0.00000000	      0.00000000	      0.00000000	     -0.00458281	      0.00000000	      1.08568624	    -12.43762638	      8.98493074	     20.64486946
      0.02916667	     -1.23509581	    -12.03004155	    -13.10363706	     -0.82059355	      0.98180918	      0.33357634	    -22.90916480	     11.16291612	     16.28995882	    -12.25702577	      5.67900801	    -13.64513513	     20.39149350	     25.53057262	    -16.51577499	      9.20955624	     -7.80999701	     -1.18330367	      0.00000000	      0.00000000	      0.00000000	     -0.00555375	      0.00000000	      0.62803823	    -12.13450320	      9.09324285	     20.81863470
      0.03333333	     -1.29997935	    -12.05904742	    -13.02213884	     -0.81430120	      0.98105524	      0.33281519	    -23.01737125	     11.13185654	     16.36413878	    -12.51314913	      5.60353435	    -13.63441779	     20.39548170	     25.32804529	    -16.41932198	      9.24217097	     -7.86127470	     -1.20068857	      0.00000000	      0.00000000	      0.00000000	     -0.00619804	      0.00000000	      0.54128790	    -11.94603930	      9.17399279	     20.81563031
      0.03750000	     -1.36923657	    -12.11748929	    -13.04860369	     -0.80826250	      0.98043586	      0.33216405	    -22.93984863	     11.12429704	     16.34089972	    -13.10914446	      5.15792489	    -13.61841783	     20.39972948	     25.05690173	    -16.40640537	      9.27195943	     -7.78985714	     -1.20901638	      0.00000000	      0.00000000	      0.00000000	     -0.00696147	      0.00000000	      0.05612326	    -11.86069365	      9.25431801	     20.76094266
      0.04166667	     -1.43552710	    -12.14525520	    -12.97963032	     -0.80180295	      0.97977604	      0.33145769	    -23.00306700	     11.10064191	     16.40668824	    -13.44261201	      5.00237550	    -13.60105977	     20.40434599	     24.81849716	    -16.32162697	      9.32005622	     -7.80902044	     -1.22424114	      0.00000000	      0.00000000	      0.00000000	     -0.00771815	      0.00000000	     -0.05362367	    -11.65193959	      9.32072270	     20.74652733
      0.04583333	     -1.49132864	    -12.04019642	    -13.17515034	     -0.79537466	      0.97933163	      0.33112484	    -22.81260464	     10.83368527	     16.07934099	    -14.14133876	      3.61823154	    -13.64039597	     23.52697246	     24.12669048	    -16.27502379	      9.06625435	     -6.80607053	     -0.60098280	      0.00000000	      0.00000000	      0.00000000	     -0.00867015	      0.00000000	     -0.43869406	    -11.50169255	      9.18947832	     20.80720206
      0.05000000	     -1.55975535	    -12.03104766	    -13.13373941	     -0.78910089	      0.97878202	      0.33039453	    -22.74731209	     10.78382376	     16.12563852	    -14.67100460	      3.29019760	    -13.61508180	     23.50196746	     23.90539273	    -16.16537515	      9.14563034	     -6.83674912	     -0.60441823	      0.00000000	      0.00000000	      0.00000000	     -0.00941661	      0.00000000	     -0.71467083	    -11.34355437	      9.20166932	     20.73801338
      0.05416667	     -1.63447153	    -11.99531508	    -13.10229022	     -0.78277290	      0.97828978	      0.32967882	    -22.62501829	     10.70607568	     16.09886605	    -15.26674530	      2.85254756	    -13.58931618	     23.47623382	     23.67531407	    -16.03810704	      9.18168683	     -6.84102580	     -0.57993269	      0.00000000	      0.00000000	      0.00000000	     -0.01017989	      0.00000000	     -0.96786728	    -11.15913532	      9.19162749	     20.65379308
      0.05833333	     -1.84058059	    -11.75555579	    -13.04602688	     -0.77608113	      0.97757734	      0.32893796	    -22.22633234	     10.43067212	     15.50785993	    -15.96847321	      2.08754565	    -13.19465182	     25.43200207	     23.54959921	    -15.71149434	      9.13693367	     -6.68801278	     -0.42007179	      0.00000000	      0.00000000	      0.00000000	     -0.01088528	      0.00000000	     -1.15010753	    -10.70495295	      9.01522473	     20.44024078
      0.06250000	     -1.86415744	    -11.70586305	    -12.97086506	     -0.76979760	      0.97725604	      0.32820550	    -22.15747516	     10.35934513	     15.61770787	    -16.54011978	      1.75027483	    -13.17589798	     25.39701029	     23.30244327	    -15.55342476	      9.23965496	     -6.75263818	     -0.40317208	      0.00000000	      0.00000000	      0.00000000	     -0.01160702	      0.00000000	     -1.36133543	    -10.57041619	      8.95354098	     20.37756583
      0.06666667	     -1.88206436	    -11.60307318	    -12.93127771	     -0.76356233	      0.97703014	      0.32742399	    -21.97717924	     10.21563263	     15.55502261	    -17.26859319	      1.19322146	    -13.17373621	     25.33981384	     23.04578936	    -15.34781977	      9.22653250	     -6.80890369	     -0.35724250	      0.00000000	      0.00000000	      0.00000000	     -0.01229255	      0.00000000	     -1.60047174	    -10.44480801	      8.84978730	     20.27009175
      0.07083333	     -1.95719789	    -11.27845378	    -12.85314101	     -0.75687557	      0.97676656	      0.32677114	    -21.67616467	      9.86495471	     15.12193365	    -17.99322632	      0.41369577	    -13.13191270	     25.43588520	     22.82296635	    -14.91557592	      9.01924003	     -6.77595155	     -0.24864755	      0.00000000	      0.00000000	      0.00000000	     -0.01281286	      0.00000000	     -1.72862541	    -10.11796504	      8.53414284	     20.06555840
      0.07500000	     -1.99509345	    -10.92823606	    -12.69162483	     -0.75037012	      0.97641531	      0.32583490	    -21.27006899	      9.46282482	     14.34621177	    -18.90149194	     -0.26715878	    -12.38439097	     27.82802835	     22.65907643	    -14.40965225	      9.00129928	     -6.87087746	     -0.19903144	      0.00000000	      0.00000000	      0.00000000	     -0.01335074	      0.00000000	     -1.89298699	     -9.84002297	      8.18139614	     19.77069238
      0.07916667	     -1.98030215	    -10.73717832	    -12.60916265	     -0.74409510	      0.97641870	      0.32508253	    -21.04195288	      9.25818098	     14.23738898	    -19.70110047	     -0.91330572	    -12.43731503	     27.81688039	     22.40243399	    -14.10388866	      8.93925526	     -6.97137254	     -0.14730571	      0.00000000	      0.00000000	      0.00000000	     -0.01388089	      0.00000000	     -2.05168834	     -9.71741590	      7.96565768	     19.62805331
      0.08333333	     -1.95776764	    -10.46369828	    -12.51160413	     -0.73777055	      0.97644960	      0.32430531	    -20.75340751	      8.95950818	     13.95678021	    -20.56756119	     -1.61334107	    -12.42990218	     27.85854723	     22.15300141	    -13.70583282	      8.81396537	     -7.08268936	     -0.09227098	      0.00000000	      0.00000000	      0.00000000	     -0.01432656	      0.00000000	     -2.18129166	     -9.57234412	      7.66572116	     19.44750242
